# xmcd
#
# Track frame offsets:
#	183
#	10683
#	24688
#	39825
#	53820
#	67530
#	83175
#	96638
#	108170
#	119263
#	135143
#	147670
#	159150
#	173938
#
# Disc length: 2507 seconds
#
# Revision: 0
# Processed by: cddbd v1.4PL0 Copyright (c) Steve Scherf et al.
# Submitted via: dBpowerAMP V4.0
#
DISCID=a809c90e
DTITLE=Henk Wijngaard - Country on the road
DYEAR=1994
DGENRE=Country
TTITLE0=Movin'on
TTITLE1=With the bears on my tail
TTITLE2=drivin' my life away
TTITLE3=a hunderd kilo
TTITLE4=Diesel smoke, dangerous curves
TTITLE5=Willie the wino
TTITLE6=The longer the distance
TTITLE7=Blue moon betty
TTITLE8=Drag' em off the interstate
TTITLE9=Hey Suzie
TTITLE10=White line fever
TTITLE11=Up in my castle
TTITLE12=Six days on the road
TTITLE13=I'd be better off alone
EXTD=
EXTT0=
EXTT1=
EXTT2=
EXTT3=
EXTT4=
EXTT5=
EXTT6=
EXTT7=
EXTT8=
EXTT9=
EXTT10=
EXTT11=
EXTT12=
EXTT13=
PLAYORDER=
